<mxfile host="65bd71144e">
    <diagram id="d6DPD3I42JS9Te3O8S3l" name="Page-1">
        <mxGraphModel dx="2032" dy="709" grid="1" gridSize="10" guides="1" tooltips="1" connect="1" arrows="1" fold="1" page="1" pageScale="1" pageWidth="850" pageHeight="1100" math="0" shadow="0">
            <root>
                <mxCell id="0"/>
                <mxCell id="1" parent="0"/>
                <mxCell id="2" value="Action&lt;br&gt;&lt;div style=&quot;text-align: left;&quot;&gt;&lt;div style=&quot;color: rgb(204, 204, 204); font-family: Consolas, &amp;quot;Courier New&amp;quot;, monospace; font-size: 14px; line-height: 19px;&quot;&gt;&lt;div style=&quot;&quot;&gt;&lt;span style=&quot;color: #569cd6;&quot;&gt;public:&lt;/span&gt;&lt;/div&gt;&lt;div style=&quot;&quot;&gt;&amp;nbsp; &amp;nbsp; &amp;nbsp; &amp;nbsp; &lt;span style=&quot;color: #569cd6;&quot;&gt;bool&lt;/span&gt; &lt;span style=&quot;color: #9cdcfe;&quot;&gt;is_computed&lt;/span&gt; &lt;span style=&quot;color: #d4d4d4;&quot;&gt;=&lt;/span&gt; &lt;span style=&quot;color: #569cd6;&quot;&gt;false&lt;/span&gt;;&lt;/div&gt;&lt;div style=&quot;&quot;&gt;&amp;nbsp; &amp;nbsp; &amp;nbsp; &amp;nbsp; &lt;span style=&quot;color: #4ec9b0;&quot;&gt;action_state&lt;/span&gt; &lt;span style=&quot;color: #9cdcfe;&quot;&gt;state&lt;/span&gt; &lt;span style=&quot;color: #d4d4d4;&quot;&gt;=&lt;/span&gt; &lt;span style=&quot;color: #4fc1ff;&quot;&gt;not_started&lt;/span&gt;;&lt;/div&gt;&lt;br&gt;&lt;div style=&quot;&quot;&gt;&amp;nbsp; &amp;nbsp; &amp;nbsp; &amp;nbsp; &lt;span style=&quot;color: #569cd6;&quot;&gt;bool&lt;/span&gt; &lt;span style=&quot;color: #dcdcaa;&quot;&gt;is_finished&lt;/span&gt;();&lt;/div&gt;&lt;div style=&quot;&quot;&gt;&amp;nbsp; &amp;nbsp; &amp;nbsp; &amp;nbsp; &lt;span style=&quot;color: #569cd6;&quot;&gt;virtual&lt;/span&gt; &lt;span style=&quot;color: #569cd6;&quot;&gt;void&lt;/span&gt; &lt;span style=&quot;color: #dcdcaa;&quot;&gt;compute&lt;/span&gt;() &lt;span style=&quot;color: #d4d4d4;&quot;&gt;=&lt;/span&gt; &lt;span style=&quot;color: #b5cea8;&quot;&gt;0&lt;/span&gt;;&lt;/div&gt;&lt;div style=&quot;&quot;&gt;&amp;nbsp; &amp;nbsp; &amp;nbsp; &amp;nbsp; &lt;span style=&quot;color: rgb(86, 156, 214);&quot;&gt;virtual&lt;/span&gt; &lt;span style=&quot;color: rgb(86, 156, 214);&quot;&gt;void&lt;/span&gt; &lt;span style=&quot;color: rgb(220, 220, 170);&quot;&gt;handle&lt;/span&gt;() &lt;span style=&quot;color: rgb(212, 212, 212);&quot;&gt;=&lt;/span&gt; &lt;span style=&quot;color: rgb(181, 206, 168);&quot;&gt;0&lt;/span&gt;;&lt;span style=&quot;color: rgb(106, 153, 85);&quot;&gt; // A dÃ©finir en globale ailleurs ?&lt;/span&gt;&lt;/div&gt;&lt;/div&gt;&lt;/div&gt;" style="rounded=0;whiteSpace=wrap;html=1;" vertex="1" parent="1">
                    <mxGeometry x="150" y="20" width="570" height="170" as="geometry"/>
                </mxCell>
                <mxCell id="3" value="&lt;br&gt;&lt;div style=&quot;&quot;&gt;&lt;span style=&quot;&quot;&gt;Complex Action&lt;/span&gt;&lt;/div&gt;&lt;div style=&quot;&quot;&gt;&lt;span style=&quot;&quot;&gt;&lt;br&gt;&lt;/span&gt;&lt;/div&gt;&lt;div style=&quot;&quot;&gt;&lt;div style=&quot;text-align: left;&quot;&gt;&lt;div style=&quot;color: rgb(204, 204, 204); font-family: Consolas, &amp;quot;Courier New&amp;quot;, monospace; font-size: 14px; line-height: 19px;&quot;&gt;&lt;div style=&quot;&quot;&gt;&lt;span style=&quot;color: #569cd6;&quot;&gt;public:&lt;/span&gt;&lt;/div&gt;&lt;div style=&quot;&quot;&gt;&lt;span style=&quot;color: #6a9955;&quot;&gt;&amp;nbsp; &amp;nbsp; // Rolling_Basis_Params rolling_basis_params; on le donne que au moment du compute&lt;/span&gt;&lt;/div&gt;&lt;div style=&quot;&quot;&gt;&amp;nbsp; &amp;nbsp; &lt;span style=&quot;color: #4ec9b0;&quot;&gt;Precision_Params&lt;/span&gt; &lt;span style=&quot;color: #9cdcfe;&quot;&gt;precision_params&lt;/span&gt;;&lt;/div&gt;&lt;div style=&quot;&quot;&gt;&amp;nbsp; &amp;nbsp; &lt;span style=&quot;color: #4ec9b0;&quot;&gt;byte&lt;/span&gt; &lt;span style=&quot;color: #9cdcfe;&quot;&gt;speed&lt;/span&gt;;&lt;/div&gt;&lt;div style=&quot;&quot;&gt;&amp;nbsp; &amp;nbsp; &lt;span style=&quot;color: #4ec9b0;&quot;&gt;direction&lt;/span&gt; &lt;span style=&quot;color: #9cdcfe;&quot;&gt;dir&lt;/span&gt;;&lt;/div&gt;&lt;br&gt;&lt;div style=&quot;&quot;&gt;&amp;nbsp; &amp;nbsp; Basic_Movement &lt;span style=&quot;color: #d4d4d4;&quot;&gt;**&lt;/span&gt;&lt;span style=&quot;color: #9cdcfe;&quot;&gt;basic_movements&lt;/span&gt;;&lt;/div&gt;&lt;div style=&quot;&quot;&gt;&amp;nbsp; &amp;nbsp; &lt;span style=&quot;color: #569cd6;&quot;&gt;short&lt;/span&gt; &lt;span style=&quot;color: #9cdcfe;&quot;&gt;nb_basic_movements&lt;/span&gt;;&lt;/div&gt;&lt;div style=&quot;&quot;&gt;&amp;nbsp; &amp;nbsp; &lt;span style=&quot;color: #569cd6;&quot;&gt;short&lt;/span&gt; &lt;span style=&quot;color: #9cdcfe;&quot;&gt;movement_index&lt;/span&gt; &lt;span style=&quot;color: #d4d4d4;&quot;&gt;=&lt;/span&gt; &lt;span style=&quot;color: #b5cea8;&quot;&gt;0&lt;/span&gt;;&lt;/div&gt;&lt;br&gt;&lt;div style=&quot;&quot;&gt;&amp;nbsp; &amp;nbsp; &lt;span style=&quot;color: #569cd6;&quot;&gt;void&lt;/span&gt; &lt;span style=&quot;color: #dcdcaa;&quot;&gt;alloc_memory&lt;/span&gt;(&lt;span style=&quot;color: #569cd6;&quot;&gt;short&lt;/span&gt; &lt;span style=&quot;color: #9cdcfe;&quot;&gt;nb_actions&lt;/span&gt;);&lt;/div&gt;&lt;div style=&quot;&quot;&gt;&amp;nbsp; &amp;nbsp; &lt;span style=&quot;color: #569cd6;&quot;&gt;void&lt;/span&gt; &lt;span style=&quot;color: #dcdcaa;&quot;&gt;handle&lt;/span&gt;(&lt;span style=&quot;color: #4ec9b0;&quot;&gt;Point&lt;/span&gt; &lt;span style=&quot;color: #9cdcfe;&quot;&gt;current_point&lt;/span&gt;,&amp;nbsp;&lt;span style=&quot;color: rgb(78, 201, 176); background-color: rgb(31, 31, 31);&quot;&gt;Ticks&amp;nbsp;&lt;/span&gt;&lt;span style=&quot;background-color: initial; color: rgb(156, 220, 254);&quot;&gt;current_ticks&lt;/span&gt;&lt;span style=&quot;background-color: initial;&quot;&gt;, &lt;/span&gt;&lt;span style=&quot;background-color: initial; color: rgb(78, 201, 176);&quot;&gt;Motor&lt;/span&gt;&lt;span style=&quot;background-color: initial;&quot;&gt; &lt;/span&gt;&lt;span style=&quot;background-color: initial; color: rgb(86, 156, 214);&quot;&gt;*&lt;/span&gt;&lt;span style=&quot;background-color: initial; color: rgb(156, 220, 254);&quot;&gt;right_motor&lt;/span&gt;&lt;span style=&quot;background-color: initial;&quot;&gt;, &lt;/span&gt;&lt;span style=&quot;background-color: initial; color: rgb(78, 201, 176);&quot;&gt;Motor&lt;/span&gt;&lt;span style=&quot;background-color: initial;&quot;&gt; &lt;/span&gt;&lt;span style=&quot;background-color: initial; color: rgb(86, 156, 214);&quot;&gt;*&lt;/span&gt;&lt;span style=&quot;background-color: initial; color: rgb(156, 220, 254);&quot;&gt;left_motor&lt;/span&gt;&lt;span style=&quot;background-color: initial;&quot;&gt;, &lt;/span&gt;&lt;span style=&quot;background-color: initial; color: rgb(78, 201, 176);&quot;&gt;Rolling_Basis_Params&lt;/span&gt;&lt;span style=&quot;background-color: initial;&quot;&gt; &lt;/span&gt;&lt;span style=&quot;background-color: initial; color: rgb(86, 156, 214);&quot;&gt;*&lt;/span&gt;&lt;span style=&quot;background-color: initial; color: rgb(156, 220, 254);&quot;&gt;rolling_basis_params&lt;/span&gt;&lt;span style=&quot;background-color: initial;&quot;&gt;);&lt;/span&gt;&lt;br&gt;&lt;/div&gt;&lt;div style=&quot;&quot;&gt;&amp;nbsp; &amp;nbsp; &lt;span style=&quot;color: rgb(86, 156, 214);&quot;&gt;void&lt;/span&gt; &lt;span style=&quot;color: rgb(220, 220, 170);&quot;&gt;compute&lt;/span&gt;(&lt;span style=&quot;color: rgb(78, 201, 176);&quot;&gt;Point&lt;/span&gt; &lt;span style=&quot;color: rgb(156, 220, 254);&quot;&gt;current_point&lt;/span&gt;,&amp;nbsp;&lt;span style=&quot;color: rgb(78, 201, 176); background-color: rgb(31, 31, 31);&quot;&gt;Ticks&amp;nbsp;&lt;/span&gt;&lt;span style=&quot;background-color: initial; color: rgb(156, 220, 254);&quot;&gt;current_ticks,&amp;nbsp;&lt;/span&gt;&lt;span style=&quot;background-color: initial; color: rgb(78, 201, 176);&quot;&gt;Rolling_Basis_Params&lt;/span&gt;&lt;span style=&quot;background-color: initial;&quot;&gt; &lt;/span&gt;&lt;span style=&quot;background-color: initial; color: rgb(86, 156, 214);&quot;&gt;*&lt;/span&gt;&lt;span style=&quot;background-color: initial; color: rgb(156, 220, 254);&quot;&gt;rolling_basis_params&lt;/span&gt;&lt;span style=&quot;background-color: initial;&quot;&gt;);&lt;/span&gt;&lt;/div&gt;&lt;div style=&quot;background-color: rgb(31, 31, 31);&quot;&gt;&lt;/div&gt;&lt;/div&gt;&lt;/div&gt;&lt;/div&gt;" style="rounded=0;whiteSpace=wrap;html=1;align=center;fontStyle=1" vertex="1" parent="1">
                    <mxGeometry x="-170" y="210" width="1400" height="320" as="geometry"/>
                </mxCell>
                <mxCell id="4" value="&lt;font color=&quot;#ffffff&quot;&gt;Basic Action&lt;br&gt;&lt;/font&gt;&lt;div style=&quot;line-height: 19px;&quot;&gt;&lt;div style=&quot;color: rgb(204, 204, 204); font-family: Consolas, &amp;quot;Courier New&amp;quot;, monospace; font-weight: normal; text-align: left;&quot;&gt;&lt;span style=&quot;color: #569cd6;&quot;&gt;private:&lt;/span&gt;&lt;/div&gt;&lt;div style=&quot;color: rgb(204, 204, 204); font-family: Consolas, &amp;quot;Courier New&amp;quot;, monospace; font-weight: normal; text-align: left;&quot;&gt;&amp;nbsp; &amp;nbsp; &lt;span style=&quot;color: #569cd6;&quot;&gt;void&lt;/span&gt; &lt;span style=&quot;color: #dcdcaa;&quot;&gt;compute&lt;/span&gt;(&lt;span style=&quot;color: #4ec9b0;&quot;&gt;Point&lt;/span&gt; &lt;span style=&quot;color: #9cdcfe;&quot;&gt;current_point&lt;/span&gt;, &lt;span style=&quot;color: #4ec9b0;&quot;&gt;Ticks&lt;/span&gt; &lt;span style=&quot;color: #9cdcfe;&quot;&gt;current_ticks&lt;/span&gt;, &lt;span style=&quot;color: #4ec9b0;&quot;&gt;Rolling_Basis_Params&lt;/span&gt; &lt;span style=&quot;color: #569cd6;&quot;&gt;*&lt;/span&gt;&lt;span style=&quot;color: #9cdcfe;&quot;&gt;rolling_basis_params&lt;/span&gt;);&lt;/div&gt;&lt;div style=&quot;text-align: left;&quot;&gt;&lt;font face=&quot;Consolas, Courier New, monospace&quot; color=&quot;#cccccc&quot;&gt;&lt;span style=&quot;font-weight: 400;&quot;&gt;&lt;br&gt;&lt;/span&gt;&lt;/font&gt;&lt;/div&gt;&lt;div style=&quot;text-align: left; color: rgb(204, 204, 204); font-family: Consolas, &amp;quot;Courier New&amp;quot;, monospace; font-weight: normal;&quot;&gt;&lt;span style=&quot;color: #569cd6;&quot;&gt;public:&lt;/span&gt;&lt;/div&gt;&lt;div style=&quot;text-align: left; color: rgb(204, 204, 204); font-family: Consolas, &amp;quot;Courier New&amp;quot;, monospace; font-weight: normal;&quot;&gt;&lt;span style=&quot;color: #6a9955;&quot;&gt;&amp;nbsp; &amp;nbsp; // Rolling_Basis_Params rolling_basis_params; on le donne que au moment du compute&lt;/span&gt;&lt;/div&gt;&lt;div style=&quot;text-align: left; color: rgb(204, 204, 204); font-family: Consolas, &amp;quot;Courier New&amp;quot;, monospace; font-weight: normal;&quot;&gt;&amp;nbsp; &amp;nbsp;&lt;/div&gt;&lt;div style=&quot;text-align: left; color: rgb(204, 204, 204); font-family: Consolas, &amp;quot;Courier New&amp;quot;, monospace; font-weight: normal;&quot;&gt;&amp;nbsp; &amp;nbsp; &lt;span style=&quot;color: #4ec9b0;&quot;&gt;Precision_Params&lt;/span&gt; &lt;span style=&quot;color: #d4d4d4;&quot;&gt;*&lt;/span&gt;&lt;span style=&quot;color: #9cdcfe;&quot;&gt;precision_params&lt;/span&gt;;&lt;/div&gt;&lt;div style=&quot;text-align: left; color: rgb(204, 204, 204); font-family: Consolas, &amp;quot;Courier New&amp;quot;, monospace; font-weight: normal;&quot;&gt;&amp;nbsp; &amp;nbsp; &lt;span style=&quot;color: #4ec9b0;&quot;&gt;byte&lt;/span&gt; &lt;span style=&quot;color: #d4d4d4;&quot;&gt;*&lt;/span&gt;&lt;span style=&quot;color: #9cdcfe;&quot;&gt;speed&lt;/span&gt;;&lt;/div&gt;&lt;div style=&quot;text-align: left; color: rgb(204, 204, 204); font-family: Consolas, &amp;quot;Courier New&amp;quot;, monospace; font-weight: normal;&quot;&gt;&amp;nbsp; &amp;nbsp; &lt;span style=&quot;color: #4ec9b0;&quot;&gt;direction&lt;/span&gt; &lt;span style=&quot;color: #d4d4d4;&quot;&gt;*&lt;/span&gt;&lt;span style=&quot;color: #9cdcfe;&quot;&gt;dir&lt;/span&gt;;&lt;/div&gt;&lt;div style=&quot;text-align: left;&quot;&gt;&lt;br&gt;&lt;/div&gt;&lt;div style=&quot;text-align: left; color: rgb(204, 204, 204); font-family: Consolas, &amp;quot;Courier New&amp;quot;, monospace; font-weight: normal;&quot;&gt;&amp;nbsp; &amp;nbsp; &lt;span style=&quot;color: #569cd6;&quot;&gt;void&lt;/span&gt; &lt;span style=&quot;color: #dcdcaa;&quot;&gt;handle&lt;/span&gt;(&lt;span style=&quot;color: #4ec9b0;&quot;&gt;Point&lt;/span&gt; &lt;span style=&quot;color: #9cdcfe;&quot;&gt;current_point&lt;/span&gt;, &lt;span style=&quot;color: #4ec9b0;&quot;&gt;Ticks&lt;/span&gt; &lt;span style=&quot;color: #9cdcfe;&quot;&gt;current_ticks&lt;/span&gt;, &lt;span style=&quot;color: #4ec9b0;&quot;&gt;Motor&lt;/span&gt; &lt;span style=&quot;color: #569cd6;&quot;&gt;*&lt;/span&gt;&lt;span style=&quot;color: #9cdcfe;&quot;&gt;right_motor&lt;/span&gt;, &lt;span style=&quot;color: #4ec9b0;&quot;&gt;Motor&lt;/span&gt; &lt;span style=&quot;color: #569cd6;&quot;&gt;*&lt;/span&gt;&lt;span style=&quot;color: #9cdcfe;&quot;&gt;left_motor&lt;/span&gt;, &lt;span style=&quot;color: #4ec9b0;&quot;&gt;Rolling_Basis_Params&lt;/span&gt; &lt;span style=&quot;color: #569cd6;&quot;&gt;*&lt;/span&gt;&lt;span style=&quot;color: #9cdcfe;&quot;&gt;rolling_basis_params&lt;/span&gt;);&lt;/div&gt;&lt;div style=&quot;color: rgb(204, 204, 204); font-family: Consolas, &amp;quot;Courier New&amp;quot;, monospace; font-weight: normal;&quot;&gt;&lt;/div&gt;&lt;/div&gt;&lt;font color=&quot;#ffffff&quot;&gt;&lt;br&gt;&lt;/font&gt;" style="rounded=0;whiteSpace=wrap;html=1;fontSize=14;fontColor=#007FFF;fontStyle=1;align=center;" vertex="1" parent="1">
                    <mxGeometry x="-60" y="570" width="1130" height="310" as="geometry"/>
                </mxCell>
                <mxCell id="5" value="&lt;div style=&quot;line-height: 19px;&quot;&gt;&lt;div style=&quot;font-family: Consolas, &amp;quot;Courier New&amp;quot;, monospace;&quot;&gt;Step Action&lt;/div&gt;&lt;div style=&quot;font-family: Consolas, &amp;quot;Courier New&amp;quot;, monospace; text-align: left; color: rgb(204, 204, 204);&quot;&gt;&lt;span style=&quot;color: #569cd6;&quot;&gt;private:&lt;/span&gt;&lt;/div&gt;&lt;div style=&quot;font-family: Consolas, &amp;quot;Courier New&amp;quot;, monospace; text-align: left; color: rgb(204, 204, 204);&quot;&gt;&amp;nbsp; &amp;nbsp; &lt;span style=&quot;color: #569cd6;&quot;&gt;virtual&lt;/span&gt; &lt;span style=&quot;color: #569cd6;&quot;&gt;void&lt;/span&gt; &lt;span style=&quot;color: #dcdcaa;&quot;&gt;compute&lt;/span&gt;(&lt;span style=&quot;color: #4ec9b0;&quot;&gt;Ticks&lt;/span&gt; &lt;span style=&quot;color: #9cdcfe;&quot;&gt;current_ticks&lt;/span&gt;, &lt;span style=&quot;color: #4ec9b0;&quot;&gt;Rolling_Basis_Params&lt;/span&gt; &lt;span style=&quot;color: #569cd6;&quot;&gt;*&lt;/span&gt;&lt;span style=&quot;color: #9cdcfe;&quot;&gt;rolling_basis_params&lt;/span&gt;) &lt;span style=&quot;color: #d4d4d4;&quot;&gt;=&lt;/span&gt; &lt;span style=&quot;color: #b5cea8;&quot;&gt;0&lt;/span&gt;;&lt;/div&gt;&lt;div style=&quot;font-family: Consolas, &amp;quot;Courier New&amp;quot;, monospace; text-align: left; color: rgb(204, 204, 204);&quot;&gt;&amp;nbsp; &amp;nbsp; &lt;span style=&quot;color: #569cd6;&quot;&gt;void&lt;/span&gt; &lt;span style=&quot;color: #dcdcaa;&quot;&gt;check_end_of_action&lt;/span&gt;(&lt;span style=&quot;color: #4ec9b0;&quot;&gt;Ticks&lt;/span&gt; &lt;span style=&quot;color: #9cdcfe;&quot;&gt;current_ticks&lt;/span&gt;);&lt;/div&gt;&lt;div style=&quot;font-family: Consolas, &amp;quot;Courier New&amp;quot;, monospace; text-align: left; color: rgb(204, 204, 204);&quot;&gt;&amp;nbsp; &amp;nbsp; &lt;span style=&quot;color: #569cd6;&quot;&gt;void&lt;/span&gt; &lt;span style=&quot;color: #dcdcaa;&quot;&gt;update_action_cursor&lt;/span&gt;(&lt;span style=&quot;color: #4ec9b0;&quot;&gt;Ticks&lt;/span&gt; &lt;span style=&quot;color: #9cdcfe;&quot;&gt;current_ticks&lt;/span&gt;);&lt;/div&gt;&lt;div style=&quot;text-align: left;&quot;&gt;&lt;font face=&quot;Consolas, Courier New, monospace&quot;&gt;&lt;br&gt;&lt;/font&gt;&lt;/div&gt;&lt;div style=&quot;text-align: left; font-family: Consolas, &amp;quot;Courier New&amp;quot;, monospace; color: rgb(204, 204, 204);&quot;&gt;&lt;span style=&quot;color: #569cd6;&quot;&gt;public:&lt;/span&gt;&lt;/div&gt;&lt;div style=&quot;text-align: left; font-family: Consolas, &amp;quot;Courier New&amp;quot;, monospace; color: rgb(204, 204, 204);&quot;&gt;&amp;nbsp; &amp;nbsp; &lt;span style=&quot;color: #4ec9b0;&quot;&gt;Precision_Params&lt;/span&gt; &lt;span style=&quot;color: #d4d4d4;&quot;&gt;*&lt;/span&gt;&lt;span style=&quot;color: #9cdcfe;&quot;&gt;precision_params&lt;/span&gt;;&lt;/div&gt;&lt;div style=&quot;text-align: left; font-family: Consolas, &amp;quot;Courier New&amp;quot;, monospace; color: rgb(204, 204, 204);&quot;&gt;&amp;nbsp; &amp;nbsp; &lt;span style=&quot;color: #4ec9b0;&quot;&gt;byte&lt;/span&gt; &lt;span style=&quot;color: #d4d4d4;&quot;&gt;*&lt;/span&gt;&lt;span style=&quot;color: #9cdcfe;&quot;&gt;speed&lt;/span&gt;;&lt;/div&gt;&lt;div style=&quot;text-align: left;&quot;&gt;&lt;br&gt;&lt;/div&gt;&lt;div style=&quot;text-align: left; font-family: Consolas, &amp;quot;Courier New&amp;quot;, monospace; color: rgb(204, 204, 204);&quot;&gt;&amp;nbsp; &amp;nbsp; &lt;span style=&quot;color: #569cd6;&quot;&gt;long&lt;/span&gt; &lt;span style=&quot;color: #9cdcfe;&quot;&gt;total_ticks&lt;/span&gt;;&lt;/div&gt;&lt;div style=&quot;text-align: left; font-family: Consolas, &amp;quot;Courier New&amp;quot;, monospace; color: rgb(204, 204, 204);&quot;&gt;&amp;nbsp; &amp;nbsp; &lt;span style=&quot;color: #569cd6;&quot;&gt;long&lt;/span&gt; &lt;span style=&quot;color: #9cdcfe;&quot;&gt;ticks_cursor&lt;/span&gt; &lt;span style=&quot;color: #d4d4d4;&quot;&gt;=&lt;/span&gt; &lt;span style=&quot;color: #b5cea8;&quot;&gt;0&lt;/span&gt;;&lt;/div&gt;&lt;div style=&quot;text-align: left;&quot;&gt;&lt;br&gt;&lt;/div&gt;&lt;div style=&quot;text-align: left; font-family: Consolas, &amp;quot;Courier New&amp;quot;, monospace; color: rgb(204, 204, 204);&quot;&gt;&amp;nbsp; &amp;nbsp; &lt;span style=&quot;color: #569cd6;&quot;&gt;long&lt;/span&gt; &lt;span style=&quot;color: #9cdcfe;&quot;&gt;right_ref&lt;/span&gt;;&lt;/div&gt;&lt;div style=&quot;text-align: left; font-family: Consolas, &amp;quot;Courier New&amp;quot;, monospace; color: rgb(204, 204, 204);&quot;&gt;&amp;nbsp; &amp;nbsp; &lt;span style=&quot;color: #569cd6;&quot;&gt;long&lt;/span&gt; &lt;span style=&quot;color: #9cdcfe;&quot;&gt;left_ref&lt;/span&gt;;&lt;/div&gt;&lt;div style=&quot;text-align: left; font-family: Consolas, &amp;quot;Courier New&amp;quot;, monospace; color: rgb(204, 204, 204);&quot;&gt;&amp;nbsp; &amp;nbsp; &lt;span style=&quot;color: #569cd6;&quot;&gt;short&lt;/span&gt; &lt;span style=&quot;color: #9cdcfe;&quot;&gt;right_sign&lt;/span&gt; &lt;span style=&quot;color: #d4d4d4;&quot;&gt;=&lt;/span&gt; &lt;span style=&quot;color: #b5cea8;&quot;&gt;1&lt;/span&gt;;&lt;/div&gt;&lt;div style=&quot;text-align: left; font-family: Consolas, &amp;quot;Courier New&amp;quot;, monospace; color: rgb(204, 204, 204);&quot;&gt;&amp;nbsp; &amp;nbsp; &lt;span style=&quot;color: #569cd6;&quot;&gt;short&lt;/span&gt; &lt;span style=&quot;color: #9cdcfe;&quot;&gt;left_sign&lt;/span&gt; &lt;span style=&quot;color: #d4d4d4;&quot;&gt;=&lt;/span&gt; &lt;span style=&quot;color: #b5cea8;&quot;&gt;1&lt;/span&gt;;&lt;/div&gt;&lt;div style=&quot;text-align: left;&quot;&gt;&lt;br&gt;&lt;/div&gt;&lt;div style=&quot;text-align: left; font-family: Consolas, &amp;quot;Courier New&amp;quot;, monospace; color: rgb(204, 204, 204);&quot;&gt;&amp;nbsp; &amp;nbsp; &lt;span style=&quot;color: #569cd6;&quot;&gt;unsigned&lt;/span&gt; &lt;span style=&quot;color: #569cd6;&quot;&gt;int&lt;/span&gt; &lt;span style=&quot;color: #9cdcfe;&quot;&gt;end_movement_cpt&lt;/span&gt; &lt;span style=&quot;color: #d4d4d4;&quot;&gt;=&lt;/span&gt; &lt;span style=&quot;color: #b5cea8;&quot;&gt;0&lt;/span&gt;;&lt;/div&gt;&lt;div style=&quot;text-align: left;&quot;&gt;&lt;br&gt;&lt;/div&gt;&lt;div style=&quot;text-align: left; font-family: Consolas, &amp;quot;Courier New&amp;quot;, monospace; color: rgb(204, 204, 204);&quot;&gt;&amp;nbsp; &amp;nbsp; &lt;span style=&quot;color: #dcdcaa;&quot;&gt;Step_Action&lt;/span&gt;() &lt;span style=&quot;color: #d4d4d4;&quot;&gt;=&lt;/span&gt; &lt;span style=&quot;color: #569cd6;&quot;&gt;default&lt;/span&gt;;&lt;/div&gt;&lt;div style=&quot;text-align: left; font-family: Consolas, &amp;quot;Courier New&amp;quot;, monospace; color: rgb(204, 204, 204);&quot;&gt;&amp;nbsp; &amp;nbsp; &lt;span style=&quot;color: rgb(86, 156, 214);&quot;&gt;void&lt;/span&gt; &lt;span style=&quot;color: rgb(220, 220, 170);&quot;&gt;handle&lt;/span&gt;(&lt;span style=&quot;color: rgb(78, 201, 176);&quot;&gt;Ticks&lt;/span&gt; &lt;span style=&quot;color: rgb(156, 220, 254);&quot;&gt;current_ticks&lt;/span&gt;, &lt;span style=&quot;color: rgb(78, 201, 176);&quot;&gt;Motor&lt;/span&gt; &lt;span style=&quot;color: rgb(86, 156, 214);&quot;&gt;*&lt;/span&gt;&lt;span style=&quot;color: rgb(156, 220, 254);&quot;&gt;right_motor&lt;/span&gt;, &lt;span style=&quot;color: rgb(78, 201, 176);&quot;&gt;Motor&lt;/span&gt; &lt;span style=&quot;color: rgb(86, 156, 214);&quot;&gt;*&lt;/span&gt;&lt;span style=&quot;color: rgb(156, 220, 254);&quot;&gt;left_motor&lt;/span&gt;);&lt;/div&gt;&lt;/div&gt;" style="rounded=1;whiteSpace=wrap;html=1;labelBackgroundColor=none;fontSize=14;fontColor=#FFFFFF;align=center;fontStyle=1" vertex="1" parent="1">
                    <mxGeometry x="-20" y="1010" width="890" height="530" as="geometry"/>
                </mxCell>
            </root>
        </mxGraphModel>
    </diagram>
</mxfile>